<svg width="681" height="753" viewBox="0 0 681 753" fill="none" xmlns="http://www.w3.org/2000/svg">
<g id="icon">
<path d="M40 42C40 40.8954 40.8954 40 42 40H639C640.105 40 641 40.8954 641 42V711C641 712.105 640.105 713 639 713H42C40.8954 713 40 712.105 40 711V42Z" fill="#444444"/>
<path d="M42 40V41H639V40V39H42V40ZM641 42H640V711H641H642V42H641ZM639 713V712H42V713V714H639V713ZM40 711H41V42H40H39V711H40ZM42 713V712C41.4477 712 41 711.552 41 711H40H39C39 712.657 40.3431 714 42 714V713ZM641 711H640C640 711.552 639.552 712 639 712V713V714C640.657 714 642 712.657 642 711H641ZM639 40V41C639.552 41 640 41.4477 640 42H641H642C642 40.3431 640.657 39 639 39V40ZM42 40V39C40.3431 39 39 40.3431 39 42H40H41C41 41.4477 41.4477 41 42 41V40Z" fill="white" fill-opacity="0.1"/>
<g id="icon_2" clip-path="url(#clip0_0_1)">
<rect width="512" height="512" transform="translate(80 132)" fill="url(#paint0_linear_0_1)"/>
<rect id="image 72" width="512" height="512" transform="matrix(1 0 0 -1 80 644)"/>
<rect id="Object" x="204" y="178" width="252.994" height="261"/>
<rect id="image 67" x="361.264" y="289.723" width="233.836" height="187.069" transform="rotate(23.744 361.264 289.723)"/>
<rect id="image 74" x="297.161" y="309" width="147.809" height="118.247" transform="rotate(70.0637 297.161 309)"/>
<rect id="image 73" x="118" y="242.122" width="133.335" height="106.668" transform="rotate(-41.9444 118 242.122)"/>
<g id="app name">
<g id="Task" filter="url(#filter0_d_0_1)">
<mask id="path-8-outside-1_0_1" maskUnits="userSpaceOnUse" x="99.5" y="442" width="233" height="75" fill="black">
<rect fill="white" x="99.5" y="442" width="233" height="75"/>
<path d="M122.324 514V463.205H102.212V448.519H160.864V463.205H140.845V514H122.324ZM193.548 514V504.552L192.332 502.213V484.814C192.332 482.008 191.459 479.856 189.713 478.36C188.029 476.8 185.316 476.021 181.575 476.021C179.142 476.021 176.679 476.426 174.185 477.237C171.69 477.985 169.57 479.046 167.824 480.418L161.837 468.35C164.705 466.479 168.135 465.045 172.127 464.047C176.18 462.987 180.203 462.457 184.194 462.457C192.426 462.457 198.787 464.359 203.277 468.163C207.829 471.905 210.106 477.798 210.106 485.843V514H193.548ZM178.581 514.842C174.528 514.842 171.098 514.156 168.291 512.784C165.485 511.412 163.333 509.541 161.837 507.171C160.402 504.801 159.685 502.151 159.685 499.22C159.685 496.102 160.465 493.42 162.024 491.175C163.645 488.868 166.109 487.122 169.414 485.937C172.719 484.689 176.991 484.066 182.229 484.066H194.203V493.327H184.662C181.793 493.327 179.766 493.794 178.581 494.73C177.459 495.665 176.897 496.913 176.897 498.472C176.897 500.031 177.49 501.278 178.675 502.213C179.86 503.149 181.481 503.617 183.539 503.617C185.472 503.617 187.218 503.149 188.777 502.213C190.399 501.216 191.584 499.719 192.332 497.723L194.764 504.271C193.829 507.764 191.989 510.414 189.245 512.223C186.564 513.969 183.009 514.842 178.581 514.842ZM237.882 514.842C233.579 514.842 229.369 514.343 225.253 513.345C221.2 512.347 217.926 511.1 215.431 509.603L220.763 497.443C223.133 498.877 225.908 500.031 229.089 500.904C232.269 501.714 235.387 502.12 238.443 502.12C241.436 502.12 243.494 501.808 244.617 501.184C245.802 500.561 246.394 499.719 246.394 498.659C246.394 497.661 245.833 496.944 244.71 496.507C243.65 496.008 242.216 495.634 240.407 495.385C238.661 495.135 236.728 494.855 234.608 494.543C232.487 494.231 230.336 493.826 228.153 493.327C226.033 492.765 224.068 491.955 222.26 490.895C220.514 489.772 219.11 488.275 218.05 486.404C216.99 484.533 216.46 482.164 216.46 479.295C216.46 476.052 217.395 473.183 219.266 470.689C221.2 468.132 224.006 466.136 227.685 464.702C231.365 463.205 235.855 462.457 241.156 462.457C244.71 462.457 248.296 462.831 251.913 463.58C255.593 464.266 258.68 465.326 261.174 466.76L255.842 478.827C253.348 477.393 250.853 476.426 248.359 475.927C245.864 475.366 243.494 475.086 241.249 475.086C238.256 475.086 236.136 475.429 234.888 476.114C233.703 476.8 233.111 477.642 233.111 478.64C233.111 479.638 233.641 480.418 234.701 480.979C235.761 481.478 237.165 481.883 238.911 482.195C240.719 482.444 242.684 482.725 244.804 483.037C246.924 483.286 249.045 483.692 251.165 484.253C253.348 484.814 255.312 485.656 257.058 486.779C258.867 487.839 260.301 489.304 261.361 491.175C262.422 492.984 262.952 495.322 262.952 498.191C262.952 501.309 261.985 504.115 260.052 506.61C258.181 509.105 255.375 511.1 251.633 512.597C247.953 514.094 243.37 514.842 237.882 514.842ZM283.52 504.646L283.987 483.411L304.661 463.299H325.708L302.79 486.966L293.716 494.262L283.52 504.646ZM268.74 514V444.59H286.513V514H268.74ZM305.97 514L290.442 494.543L301.48 480.885L327.486 514H305.97Z"/>
</mask>
<path d="M122.324 514V463.205H102.212V448.519H160.864V463.205H140.845V514H122.324ZM193.548 514V504.552L192.332 502.213V484.814C192.332 482.008 191.459 479.856 189.713 478.36C188.029 476.8 185.316 476.021 181.575 476.021C179.142 476.021 176.679 476.426 174.185 477.237C171.69 477.985 169.57 479.046 167.824 480.418L161.837 468.35C164.705 466.479 168.135 465.045 172.127 464.047C176.18 462.987 180.203 462.457 184.194 462.457C192.426 462.457 198.787 464.359 203.277 468.163C207.829 471.905 210.106 477.798 210.106 485.843V514H193.548ZM178.581 514.842C174.528 514.842 171.098 514.156 168.291 512.784C165.485 511.412 163.333 509.541 161.837 507.171C160.402 504.801 159.685 502.151 159.685 499.22C159.685 496.102 160.465 493.42 162.024 491.175C163.645 488.868 166.109 487.122 169.414 485.937C172.719 484.689 176.991 484.066 182.229 484.066H194.203V493.327H184.662C181.793 493.327 179.766 493.794 178.581 494.73C177.459 495.665 176.897 496.913 176.897 498.472C176.897 500.031 177.49 501.278 178.675 502.213C179.86 503.149 181.481 503.617 183.539 503.617C185.472 503.617 187.218 503.149 188.777 502.213C190.399 501.216 191.584 499.719 192.332 497.723L194.764 504.271C193.829 507.764 191.989 510.414 189.245 512.223C186.564 513.969 183.009 514.842 178.581 514.842ZM237.882 514.842C233.579 514.842 229.369 514.343 225.253 513.345C221.2 512.347 217.926 511.1 215.431 509.603L220.763 497.443C223.133 498.877 225.908 500.031 229.089 500.904C232.269 501.714 235.387 502.12 238.443 502.12C241.436 502.12 243.494 501.808 244.617 501.184C245.802 500.561 246.394 499.719 246.394 498.659C246.394 497.661 245.833 496.944 244.71 496.507C243.65 496.008 242.216 495.634 240.407 495.385C238.661 495.135 236.728 494.855 234.608 494.543C232.487 494.231 230.336 493.826 228.153 493.327C226.033 492.765 224.068 491.955 222.26 490.895C220.514 489.772 219.11 488.275 218.05 486.404C216.99 484.533 216.46 482.164 216.46 479.295C216.46 476.052 217.395 473.183 219.266 470.689C221.2 468.132 224.006 466.136 227.685 464.702C231.365 463.205 235.855 462.457 241.156 462.457C244.71 462.457 248.296 462.831 251.913 463.58C255.593 464.266 258.68 465.326 261.174 466.76L255.842 478.827C253.348 477.393 250.853 476.426 248.359 475.927C245.864 475.366 243.494 475.086 241.249 475.086C238.256 475.086 236.136 475.429 234.888 476.114C233.703 476.8 233.111 477.642 233.111 478.64C233.111 479.638 233.641 480.418 234.701 480.979C235.761 481.478 237.165 481.883 238.911 482.195C240.719 482.444 242.684 482.725 244.804 483.037C246.924 483.286 249.045 483.692 251.165 484.253C253.348 484.814 255.312 485.656 257.058 486.779C258.867 487.839 260.301 489.304 261.361 491.175C262.422 492.984 262.952 495.322 262.952 498.191C262.952 501.309 261.985 504.115 260.052 506.61C258.181 509.105 255.375 511.1 251.633 512.597C247.953 514.094 243.37 514.842 237.882 514.842ZM283.52 504.646L283.987 483.411L304.661 463.299H325.708L302.79 486.966L293.716 494.262L283.52 504.646ZM268.74 514V444.59H286.513V514H268.74ZM305.97 514L290.442 494.543L301.48 480.885L327.486 514H305.97Z" fill="white"/>
<path d="M122.324 514H120.324V516H122.324V514ZM122.324 463.205H124.324V461.205H122.324V463.205ZM102.212 463.205H100.212V465.205H102.212V463.205ZM102.212 448.519V446.519H100.212V448.519H102.212ZM160.864 448.519H162.864V446.519H160.864V448.519ZM160.864 463.205V465.205H162.864V463.205H160.864ZM140.845 463.205V461.205H138.845V463.205H140.845ZM140.845 514V516H142.845V514H140.845ZM122.324 514H124.324V463.205H122.324H120.324V514H122.324ZM122.324 463.205V461.205H102.212V463.205V465.205H122.324V463.205ZM102.212 463.205H104.212V448.519H102.212H100.212V463.205H102.212ZM102.212 448.519V450.519H160.864V448.519V446.519H102.212V448.519ZM160.864 448.519H158.864V463.205H160.864H162.864V448.519H160.864ZM160.864 463.205V461.205H140.845V463.205V465.205H160.864V463.205ZM140.845 463.205H138.845V514H140.845H142.845V463.205H140.845ZM140.845 514V512H122.324V514V516H140.845V514ZM193.548 514H191.548V516H193.548V514ZM193.548 504.552H195.548V504.063L195.323 503.629L193.548 504.552ZM192.332 502.213H190.332V502.702L190.558 503.136L192.332 502.213ZM189.713 478.36L188.354 479.827L188.382 479.853L188.411 479.878L189.713 478.36ZM174.185 477.237L174.759 479.153L174.781 479.146L174.803 479.139L174.185 477.237ZM167.824 480.418L166.032 481.306L167.125 483.51L169.059 481.99L167.824 480.418ZM161.837 468.35L160.744 466.675L159.255 467.646L160.045 469.239L161.837 468.35ZM172.127 464.047L172.612 465.988L172.622 465.985L172.633 465.982L172.127 464.047ZM203.277 468.163L201.984 469.689L201.995 469.699L202.007 469.708L203.277 468.163ZM210.106 514V516H212.106V514H210.106ZM168.291 512.784L169.17 510.987L168.291 512.784ZM161.837 507.171L160.126 508.207L160.136 508.223L160.146 508.239L161.837 507.171ZM162.024 491.175L160.387 490.025L160.381 490.034L162.024 491.175ZM169.414 485.937L170.089 487.819L170.104 487.814L170.12 487.808L169.414 485.937ZM194.203 484.066H196.203V482.066H194.203V484.066ZM194.203 493.327V495.327H196.203V493.327H194.203ZM178.581 494.73L177.342 493.16L177.321 493.176L177.301 493.193L178.581 494.73ZM178.675 502.213L177.435 503.783V503.783L178.675 502.213ZM188.777 502.213L189.806 503.928L189.816 503.923L189.826 503.917L188.777 502.213ZM192.332 497.723L194.207 497.027L192.341 492.003L190.46 497.021L192.332 497.723ZM194.764 504.271L196.696 504.789L196.861 504.173L196.639 503.575L194.764 504.271ZM189.245 512.223L190.337 513.899L190.346 513.893L189.245 512.223ZM193.548 514H195.548V504.552H193.548H191.548V514H193.548ZM193.548 504.552L195.323 503.629L194.107 501.291L192.332 502.213L190.558 503.136L191.774 505.475L193.548 504.552ZM192.332 502.213H194.332V484.814H192.332H190.332V502.213H192.332ZM192.332 484.814H194.332C194.332 481.564 193.3 478.8 191.014 476.841L189.713 478.36L188.411 479.878C189.618 480.912 190.332 482.451 190.332 484.814H192.332ZM189.713 478.36L191.072 476.892C188.845 474.83 185.52 474.021 181.575 474.021V476.021V478.021C185.112 478.021 187.213 478.771 188.354 479.827L189.713 478.36ZM181.575 476.021V474.021C178.917 474.021 176.245 474.464 173.566 475.335L174.185 477.237L174.803 479.139C177.113 478.388 179.368 478.021 181.575 478.021V476.021ZM174.185 477.237L173.61 475.321C170.916 476.129 168.562 477.294 166.588 478.845L167.824 480.418L169.059 481.99C170.578 480.797 172.464 479.841 174.759 479.153L174.185 477.237ZM167.824 480.418L169.615 479.529L163.628 467.461L161.837 468.35L160.045 469.239L166.032 481.306L167.824 480.418ZM161.837 468.35L162.929 470.026C165.578 468.298 168.794 466.942 172.612 465.988L172.127 464.047L171.641 462.107C167.477 463.148 163.832 464.661 160.744 466.675L161.837 468.35ZM172.127 464.047L172.633 465.982C176.529 464.963 180.382 464.457 184.194 464.457V462.457V460.457C180.023 460.457 175.831 461.011 171.62 462.112L172.127 464.047ZM184.194 462.457V464.457C192.139 464.457 197.976 466.294 201.984 469.689L203.277 468.163L204.57 466.637C199.597 462.425 192.712 460.457 184.194 460.457V462.457ZM203.277 468.163L202.007 469.708C205.944 472.944 208.106 478.165 208.106 485.843H210.106H212.106C212.106 477.431 209.715 470.866 204.547 466.618L203.277 468.163ZM210.106 485.843H208.106V514H210.106H212.106V485.843H210.106ZM210.106 514V512H193.548V514V516H210.106V514ZM178.581 514.842V512.842C174.745 512.842 171.634 512.192 169.17 510.987L168.291 512.784L167.413 514.581C170.562 516.12 174.31 516.842 178.581 516.842V514.842ZM168.291 512.784L169.17 510.987C166.657 509.759 164.804 508.124 163.528 506.103L161.837 507.171L160.146 508.239C161.863 510.958 164.313 513.065 167.413 514.581L168.291 512.784ZM161.837 507.171L163.548 506.136C162.314 504.097 161.685 501.808 161.685 499.22H159.685H157.685C157.685 502.494 158.491 505.506 160.126 508.207L161.837 507.171ZM159.685 499.22H161.685C161.685 496.45 162.372 494.18 163.666 492.316L162.024 491.175L160.381 490.034C158.558 492.66 157.685 495.753 157.685 499.22H159.685ZM162.024 491.175L163.66 492.325C164.992 490.43 167.076 488.899 170.089 487.819L169.414 485.937L168.739 484.054C165.141 485.344 162.299 487.305 160.387 490.025L162.024 491.175ZM169.414 485.937L170.12 487.808C173.118 486.676 177.127 486.066 182.229 486.066V484.066V482.066C176.855 482.066 172.32 482.702 168.708 484.065L169.414 485.937ZM182.229 484.066V486.066H194.203V484.066V482.066H182.229V484.066ZM194.203 484.066H192.203V493.327H194.203H196.203V484.066H194.203ZM194.203 493.327V491.327H184.662V493.327V495.327H194.203V493.327ZM184.662 493.327V491.327C181.692 491.327 179.08 491.788 177.342 493.16L178.581 494.73L179.82 496.3C180.452 495.801 181.893 495.327 184.662 495.327V493.327ZM178.581 494.73L177.301 493.193C175.688 494.537 174.897 496.364 174.897 498.472H176.897H178.897C178.897 497.461 179.229 496.794 179.861 496.266L178.581 494.73ZM176.897 498.472H174.897C174.897 500.619 175.752 502.454 177.435 503.783L178.675 502.213L179.914 500.644C179.227 500.102 178.897 499.442 178.897 498.472H176.897ZM178.675 502.213L177.435 503.783C179.082 505.083 181.193 505.617 183.539 505.617V503.617V501.617C181.769 501.617 180.637 501.214 179.914 500.644L178.675 502.213ZM183.539 503.617V505.617C185.811 505.617 187.917 505.062 189.806 503.928L188.777 502.213L187.748 500.498C186.52 501.235 185.134 501.617 183.539 501.617V503.617ZM188.777 502.213L189.826 503.917C191.871 502.658 193.32 500.785 194.205 498.426L192.332 497.723L190.46 497.021C189.847 498.653 188.927 499.773 187.729 500.51L188.777 502.213ZM192.332 497.723L190.457 498.42L192.889 504.968L194.764 504.271L196.639 503.575L194.207 497.027L192.332 497.723ZM194.764 504.271L192.832 503.754C192.01 506.824 190.438 509.041 188.145 510.553L189.245 512.223L190.346 513.893C193.541 511.787 195.648 508.703 196.696 504.789L194.764 504.271ZM189.245 512.223L188.154 510.547C185.899 512.015 182.765 512.842 178.581 512.842V514.842V516.842C183.253 516.842 187.228 515.923 190.337 513.899L189.245 512.223ZM225.253 513.345L224.775 515.287L224.782 515.289L225.253 513.345ZM215.431 509.603L213.599 508.8L212.892 510.413L214.402 511.318L215.431 509.603ZM220.763 497.443L221.799 495.732L219.847 494.551L218.931 496.64L220.763 497.443ZM229.089 500.904L228.559 502.832L228.577 502.837L228.595 502.842L229.089 500.904ZM244.617 501.184L243.685 499.415L243.665 499.425L243.646 499.436L244.617 501.184ZM244.71 496.507L243.859 498.317L243.921 498.346L243.986 498.371L244.71 496.507ZM240.407 495.385L240.125 497.365L240.134 497.366L240.407 495.385ZM234.608 494.543L234.317 496.521V496.521L234.608 494.543ZM228.153 493.327L227.641 495.26L227.674 495.269L227.707 495.276L228.153 493.327ZM222.26 490.895L221.178 492.577L221.213 492.599L221.248 492.62L222.26 490.895ZM218.05 486.404L219.79 485.418V485.418L218.05 486.404ZM219.266 470.689L217.671 469.483L217.666 469.489L219.266 470.689ZM227.685 464.702L228.412 466.565L228.425 466.56L228.439 466.555L227.685 464.702ZM251.913 463.58L251.508 465.538L251.527 465.542L251.547 465.546L251.913 463.58ZM261.174 466.76L263.004 467.568L263.731 465.923L262.171 465.026L261.174 466.76ZM255.842 478.827L254.845 480.561L256.773 481.669L257.672 479.636L255.842 478.827ZM248.359 475.927L247.92 477.879L247.943 477.884L247.966 477.889L248.359 475.927ZM234.888 476.114L233.924 474.362L233.905 474.373L233.886 474.384L234.888 476.114ZM234.701 480.979L233.765 482.746L233.807 482.768L233.85 482.788L234.701 480.979ZM238.911 482.195L238.559 484.164L238.598 484.171L238.637 484.176L238.911 482.195ZM244.804 483.037L244.513 485.016L244.542 485.02L244.57 485.023L244.804 483.037ZM251.165 484.253L250.653 486.186L250.66 486.188L250.667 486.19L251.165 484.253ZM257.058 486.779L255.977 488.461L256.011 488.483L256.047 488.504L257.058 486.779ZM261.361 491.175L259.621 492.161L259.629 492.174L259.636 492.187L261.361 491.175ZM260.052 506.61L258.471 505.385L258.461 505.397L258.452 505.41L260.052 506.61ZM251.633 512.597L250.89 510.74L250.879 510.744L251.633 512.597ZM237.882 514.842V512.842C233.735 512.842 229.684 512.361 225.724 511.401L225.253 513.345L224.782 515.289C229.055 516.325 233.423 516.842 237.882 516.842V514.842ZM225.253 513.345L225.731 511.403C221.795 510.434 218.727 509.248 216.46 507.888L215.431 509.603L214.402 511.318C217.125 512.952 220.604 514.261 224.775 515.287L225.253 513.345ZM215.431 509.603L217.263 510.407L222.595 498.246L220.763 497.443L218.931 496.64L213.599 508.8L215.431 509.603ZM220.763 497.443L219.727 499.154C222.282 500.7 225.233 501.919 228.559 502.832L229.089 500.904L229.618 498.975C226.583 498.142 223.984 497.054 221.799 495.732L220.763 497.443ZM229.089 500.904L228.595 502.842C231.925 503.691 235.209 504.12 238.443 504.12V502.12V500.12C235.566 500.12 232.614 499.738 229.583 498.966L229.089 500.904ZM238.443 502.12V504.12C240.001 504.12 241.37 504.039 242.531 503.863C243.668 503.691 244.729 503.41 245.588 502.933L244.617 501.184L243.646 499.436C243.382 499.583 242.853 499.769 241.932 499.909C241.035 500.045 239.879 500.12 238.443 500.12V502.12ZM244.617 501.184L245.548 502.954C247.186 502.092 248.394 500.667 248.394 498.659H246.394H244.394C244.394 498.771 244.417 499.029 243.685 499.415L244.617 501.184ZM246.394 498.659H248.394C248.394 497.758 248.131 496.884 247.548 496.14C246.986 495.421 246.227 494.951 245.435 494.643L244.71 496.507L243.986 498.371C244.148 498.434 244.253 498.493 244.317 498.537C244.379 498.58 244.398 498.605 244.398 498.605C244.399 498.606 244.397 498.603 244.394 498.598C244.391 498.592 244.389 498.587 244.388 498.585C244.386 498.579 244.394 498.598 244.394 498.659H246.394ZM244.71 496.507L245.562 494.698C244.247 494.078 242.591 493.667 240.681 493.403L240.407 495.385L240.134 497.366C241.841 497.601 243.054 497.938 243.859 498.317L244.71 496.507ZM240.407 495.385L240.69 493.405C238.947 493.156 237.017 492.876 234.899 492.564L234.608 494.543L234.317 496.521C236.439 496.834 238.375 497.115 240.125 497.365L240.407 495.385ZM234.608 494.543L234.899 492.564C232.832 492.26 230.733 491.865 228.599 491.377L228.153 493.327L227.707 495.276C229.939 495.786 232.142 496.202 234.317 496.521L234.608 494.543ZM228.153 493.327L228.665 491.393C226.712 490.876 224.916 490.133 223.271 489.169L222.26 490.895L221.248 492.62C223.22 493.776 225.354 494.655 227.641 495.26L228.153 493.327ZM222.26 490.895L223.341 489.212C221.878 488.271 220.697 487.018 219.79 485.418L218.05 486.404L216.31 487.39C217.524 489.533 219.149 491.273 221.178 492.577L222.26 490.895ZM218.05 486.404L219.79 485.418C218.948 483.932 218.46 481.93 218.46 479.295H216.46H214.46C214.46 482.398 215.032 485.135 216.31 487.39L218.05 486.404ZM216.46 479.295H218.46C218.46 476.466 219.266 474.023 220.866 471.889L219.266 470.689L217.666 469.489C215.525 472.344 214.46 475.638 214.46 479.295H216.46ZM219.266 470.689L220.862 471.895C222.525 469.695 224.997 467.897 228.412 466.565L227.685 464.702L226.959 462.839C223.015 464.376 219.874 466.569 217.671 469.483L219.266 470.689ZM227.685 464.702L228.439 466.555C231.814 465.182 236.032 464.457 241.156 464.457V462.457V460.457C235.678 460.457 230.916 461.229 226.932 462.849L227.685 464.702ZM241.156 462.457V464.457C244.569 464.457 248.019 464.816 251.508 465.538L251.913 463.58L252.319 461.621C248.573 460.846 244.852 460.457 241.156 460.457V462.457ZM251.913 463.58L251.547 465.546C255.068 466.202 257.927 467.2 260.177 468.494L261.174 466.76L262.171 465.026C259.432 463.451 256.118 462.329 252.28 461.613L251.913 463.58ZM261.174 466.76L259.345 465.952L254.013 478.019L255.842 478.827L257.672 479.636L263.004 467.568L261.174 466.76ZM255.842 478.827L256.839 477.093C254.181 475.565 251.484 474.513 248.751 473.966L248.359 475.927L247.966 477.889C250.223 478.34 252.514 479.221 254.845 480.561L255.842 478.827ZM248.359 475.927L248.798 473.976C246.179 473.387 243.661 473.086 241.249 473.086V475.086V477.086C243.328 477.086 245.55 477.345 247.92 477.879L248.359 475.927ZM241.249 475.086V473.086C238.214 473.086 235.647 473.414 233.924 474.362L234.888 476.114L235.852 477.867C236.624 477.443 238.298 477.086 241.249 477.086V475.086ZM234.888 476.114L233.886 474.384C232.342 475.277 231.111 476.673 231.111 478.64H233.111H235.111C235.111 478.567 235.124 478.507 235.191 478.411C235.275 478.292 235.47 478.089 235.89 477.845L234.888 476.114ZM233.111 478.64H231.111C231.111 480.543 232.209 481.923 233.765 482.746L234.701 480.979L235.637 479.211C235.319 479.043 235.201 478.905 235.162 478.849C235.136 478.81 235.111 478.763 235.111 478.64H233.111ZM234.701 480.979L233.85 482.788C235.128 483.39 236.719 483.835 238.559 484.164L238.911 482.195L239.262 480.226C237.61 479.931 236.395 479.565 235.553 479.169L234.701 480.979ZM238.911 482.195L238.637 484.176C240.439 484.425 242.398 484.704 244.513 485.016L244.804 483.037L245.095 481.058C242.97 480.746 240.999 480.464 239.184 480.214L238.911 482.195ZM244.804 483.037L244.57 485.023C246.594 485.261 248.622 485.649 250.653 486.186L251.165 484.253L251.677 482.319C249.468 481.735 247.254 481.311 245.038 481.05L244.804 483.037ZM251.165 484.253L250.667 486.19C252.661 486.702 254.425 487.463 255.977 488.461L257.058 486.779L258.14 485.096C256.199 483.849 254.035 482.926 251.663 482.316L251.165 484.253ZM257.058 486.779L256.047 488.504C257.544 489.381 258.73 490.588 259.621 492.161L261.361 491.175L263.101 490.189C261.872 488.02 260.19 486.296 258.07 485.053L257.058 486.779ZM261.361 491.175L259.636 492.187C260.462 493.596 260.952 495.552 260.952 498.191H262.952H264.952C264.952 495.092 264.381 492.372 263.087 490.164L261.361 491.175ZM262.952 498.191H260.952C260.952 500.86 260.136 503.236 258.471 505.385L260.052 506.61L261.633 507.835C263.834 504.995 264.952 501.758 264.952 498.191H262.952ZM260.052 506.61L258.452 505.41C256.857 507.537 254.389 509.34 250.89 510.74L251.633 512.597L252.376 514.454C256.36 512.86 259.505 510.672 261.652 507.81L260.052 506.61ZM251.633 512.597L250.879 510.744C247.512 512.114 243.203 512.842 237.882 512.842V514.842V516.842C243.536 516.842 248.395 516.073 252.386 514.449L251.633 512.597ZM283.52 504.646L281.52 504.602L281.409 509.649L284.947 506.047L283.52 504.646ZM283.987 483.411L282.593 481.977L282.006 482.548L281.988 483.367L283.987 483.411ZM304.661 463.299V461.299H303.848L303.266 461.865L304.661 463.299ZM325.708 463.299L327.145 464.69L330.429 461.299H325.708V463.299ZM302.79 486.966L304.043 488.524L304.14 488.446L304.227 488.357L302.79 486.966ZM293.716 494.262L292.463 492.704L292.371 492.777L292.289 492.861L293.716 494.262ZM268.74 514H266.74V516H268.74V514ZM268.74 444.59V442.59H266.74V444.59H268.74ZM286.513 444.59H288.513V442.59H286.513V444.59ZM286.513 514V516H288.513V514H286.513ZM305.97 514L304.407 515.248L305.008 516H305.97V514ZM290.442 494.543L288.887 493.286L287.877 494.535L288.879 495.79L290.442 494.543ZM301.48 480.885L303.053 479.65L301.503 477.676L299.925 479.628L301.48 480.885ZM327.486 514V516H331.599L329.059 512.765L327.486 514ZM283.52 504.646L285.519 504.69L285.987 483.455L283.987 483.411L281.988 483.367L281.52 504.602L283.52 504.646ZM283.987 483.411L285.382 484.844L306.055 464.732L304.661 463.299L303.266 461.865L282.593 481.977L283.987 483.411ZM304.661 463.299V465.299H325.708V463.299V461.299H304.661V463.299ZM325.708 463.299L324.272 461.908L301.353 485.574L302.79 486.966L304.227 488.357L327.145 464.69L325.708 463.299ZM302.79 486.966L301.537 485.407L292.463 492.704L293.716 494.262L294.969 495.821L304.043 488.524L302.79 486.966ZM293.716 494.262L292.289 492.861L282.093 503.244L283.52 504.646L284.947 506.047L295.143 495.663L293.716 494.262ZM268.74 514H270.74V444.59H268.74H266.74V514H268.74ZM268.74 444.59V446.59H286.513V444.59V442.59H268.74V444.59ZM286.513 444.59H284.513V514H286.513H288.513V444.59H286.513ZM286.513 514V512H268.74V514V516H286.513V514ZM305.97 514L307.534 512.752L292.005 493.295L290.442 494.543L288.879 495.79L304.407 515.248L305.97 514ZM290.442 494.543L291.997 495.8L303.036 482.142L301.48 480.885L299.925 479.628L288.887 493.286L290.442 494.543ZM301.48 480.885L299.907 482.121L325.913 515.235L327.486 514L329.059 512.765L303.053 479.65L301.48 480.885ZM327.486 514V512H305.97V514V516H327.486V514Z" fill="#047935" mask="url(#path-8-outside-1_0_1)"/>
</g>
<g id="Cash" filter="url(#filter1_d_0_1)">
<mask id="path-10-outside-2_0_1" maskUnits="userSpaceOnUse" x="331.618" y="442" width="235" height="76" fill="black">
<rect fill="white" x="331.618" y="442" width="235" height="76"/>
<path d="M370.165 515.31C364.989 515.31 360.187 514.499 355.759 512.877C351.393 511.194 347.589 508.824 344.346 505.768C341.166 502.712 338.671 499.126 336.863 495.01C335.054 490.832 334.15 486.248 334.15 481.259C334.15 476.27 335.054 471.718 336.863 467.602C338.671 463.424 341.166 459.807 344.346 456.751C347.589 453.695 351.393 451.356 355.759 449.735C360.187 448.051 364.989 447.209 370.165 447.209C376.214 447.209 381.608 448.269 386.348 450.39C391.15 452.51 395.141 455.566 398.322 459.557L386.535 470.221C384.415 467.727 382.076 465.825 379.519 464.515C377.025 463.205 374.218 462.551 371.1 462.551C368.419 462.551 365.955 462.987 363.71 463.86C361.465 464.733 359.532 466.012 357.91 467.695C356.351 469.317 355.104 471.281 354.169 473.589C353.296 475.896 352.859 478.453 352.859 481.259C352.859 484.066 353.296 486.623 354.169 488.93C355.104 491.238 356.351 493.233 357.91 494.917C359.532 496.538 361.465 497.786 363.71 498.659C365.955 499.532 368.419 499.968 371.1 499.968C374.218 499.968 377.025 499.314 379.519 498.004C382.076 496.694 384.415 494.792 386.535 492.298L398.322 502.962C395.141 506.891 391.15 509.946 386.348 512.129C381.608 514.249 376.214 515.31 370.165 515.31ZM434.648 514V504.552L433.431 502.213V484.814C433.431 482.008 432.558 479.856 430.812 478.36C429.128 476.8 426.416 476.021 422.674 476.021C420.242 476.021 417.778 476.426 415.284 477.237C412.789 477.985 410.669 479.046 408.923 480.418L402.936 468.35C405.805 466.479 409.235 465.045 413.226 464.047C417.279 462.987 421.302 462.457 425.293 462.457C433.525 462.457 439.886 464.359 444.376 468.163C448.929 471.905 451.205 477.798 451.205 485.843V514H434.648ZM419.68 514.842C415.627 514.842 412.197 514.156 409.391 512.784C406.584 511.412 404.433 509.541 402.936 507.171C401.502 504.801 400.784 502.151 400.784 499.22C400.784 496.102 401.564 493.42 403.123 491.175C404.744 488.868 407.208 487.122 410.513 485.937C413.818 484.689 418.09 484.066 423.329 484.066H435.302V493.327H425.761C422.892 493.327 420.865 493.794 419.68 494.73C418.558 495.665 417.997 496.913 417.997 498.472C417.997 500.031 418.589 501.278 419.774 502.213C420.959 503.149 422.58 503.617 424.638 503.617C426.572 503.617 428.318 503.149 429.877 502.213C431.498 501.216 432.683 499.719 433.431 497.723L435.864 504.271C434.928 507.764 433.088 510.414 430.344 512.223C427.663 513.969 424.108 514.842 419.68 514.842ZM478.981 514.842C474.678 514.842 470.468 514.343 466.353 513.345C462.299 512.347 459.025 511.1 456.53 509.603L461.862 497.443C464.232 498.877 467.007 500.031 470.188 500.904C473.368 501.714 476.487 502.12 479.542 502.12C482.536 502.12 484.594 501.808 485.716 501.184C486.901 500.561 487.494 499.719 487.494 498.659C487.494 497.661 486.932 496.944 485.81 496.507C484.75 496.008 483.315 495.634 481.507 495.385C479.761 495.135 477.827 494.855 475.707 494.543C473.587 494.231 471.435 493.826 469.252 493.327C467.132 492.765 465.168 491.955 463.359 490.895C461.613 489.772 460.21 488.275 459.15 486.404C458.089 484.533 457.559 482.164 457.559 479.295C457.559 476.052 458.495 473.183 460.366 470.689C462.299 468.132 465.105 466.136 468.785 464.702C472.464 463.205 476.954 462.457 482.255 462.457C485.81 462.457 489.396 462.831 493.013 463.58C496.692 464.266 499.779 465.326 502.274 466.76L496.942 478.827C494.447 477.393 491.953 476.426 489.458 475.927C486.963 475.366 484.594 475.086 482.349 475.086C479.355 475.086 477.235 475.429 475.988 476.114C474.803 476.8 474.21 477.642 474.21 478.64C474.21 479.638 474.74 480.418 475.801 480.979C476.861 481.478 478.264 481.883 480.01 482.195C481.819 482.444 483.783 482.725 485.903 483.037C488.024 483.286 490.144 483.692 492.264 484.253C494.447 484.814 496.411 485.656 498.158 486.779C499.966 487.839 501.401 489.304 502.461 491.175C503.521 492.984 504.051 495.322 504.051 498.191C504.051 501.309 503.084 504.115 501.151 506.61C499.28 509.105 496.474 511.1 492.732 512.597C489.053 514.094 484.469 514.842 478.981 514.842ZM542.86 462.457C546.789 462.457 550.344 463.268 553.524 464.889C556.705 466.448 559.199 468.88 561.008 472.186C562.879 475.491 563.814 479.763 563.814 485.001V514H546.041V487.901C546.041 484.284 545.292 481.665 543.796 480.043C542.361 478.36 540.334 477.518 537.715 477.518C535.844 477.518 534.129 477.954 532.57 478.827C531.011 479.638 529.795 480.916 528.922 482.663C528.049 484.409 527.612 486.685 527.612 489.491V514H509.839V444.59H527.612V477.705L523.496 473.495C525.43 469.816 528.08 467.072 531.448 465.263C534.815 463.392 538.62 462.457 542.86 462.457Z"/>
</mask>
<path d="M370.165 515.31C364.989 515.31 360.187 514.499 355.759 512.877C351.393 511.194 347.589 508.824 344.346 505.768C341.166 502.712 338.671 499.126 336.863 495.01C335.054 490.832 334.15 486.248 334.15 481.259C334.15 476.27 335.054 471.718 336.863 467.602C338.671 463.424 341.166 459.807 344.346 456.751C347.589 453.695 351.393 451.356 355.759 449.735C360.187 448.051 364.989 447.209 370.165 447.209C376.214 447.209 381.608 448.269 386.348 450.39C391.15 452.51 395.141 455.566 398.322 459.557L386.535 470.221C384.415 467.727 382.076 465.825 379.519 464.515C377.025 463.205 374.218 462.551 371.1 462.551C368.419 462.551 365.955 462.987 363.71 463.86C361.465 464.733 359.532 466.012 357.91 467.695C356.351 469.317 355.104 471.281 354.169 473.589C353.296 475.896 352.859 478.453 352.859 481.259C352.859 484.066 353.296 486.623 354.169 488.93C355.104 491.238 356.351 493.233 357.91 494.917C359.532 496.538 361.465 497.786 363.71 498.659C365.955 499.532 368.419 499.968 371.1 499.968C374.218 499.968 377.025 499.314 379.519 498.004C382.076 496.694 384.415 494.792 386.535 492.298L398.322 502.962C395.141 506.891 391.15 509.946 386.348 512.129C381.608 514.249 376.214 515.31 370.165 515.31ZM434.648 514V504.552L433.431 502.213V484.814C433.431 482.008 432.558 479.856 430.812 478.36C429.128 476.8 426.416 476.021 422.674 476.021C420.242 476.021 417.778 476.426 415.284 477.237C412.789 477.985 410.669 479.046 408.923 480.418L402.936 468.35C405.805 466.479 409.235 465.045 413.226 464.047C417.279 462.987 421.302 462.457 425.293 462.457C433.525 462.457 439.886 464.359 444.376 468.163C448.929 471.905 451.205 477.798 451.205 485.843V514H434.648ZM419.68 514.842C415.627 514.842 412.197 514.156 409.391 512.784C406.584 511.412 404.433 509.541 402.936 507.171C401.502 504.801 400.784 502.151 400.784 499.22C400.784 496.102 401.564 493.42 403.123 491.175C404.744 488.868 407.208 487.122 410.513 485.937C413.818 484.689 418.09 484.066 423.329 484.066H435.302V493.327H425.761C422.892 493.327 420.865 493.794 419.68 494.73C418.558 495.665 417.997 496.913 417.997 498.472C417.997 500.031 418.589 501.278 419.774 502.213C420.959 503.149 422.58 503.617 424.638 503.617C426.572 503.617 428.318 503.149 429.877 502.213C431.498 501.216 432.683 499.719 433.431 497.723L435.864 504.271C434.928 507.764 433.088 510.414 430.344 512.223C427.663 513.969 424.108 514.842 419.68 514.842ZM478.981 514.842C474.678 514.842 470.468 514.343 466.353 513.345C462.299 512.347 459.025 511.1 456.53 509.603L461.862 497.443C464.232 498.877 467.007 500.031 470.188 500.904C473.368 501.714 476.487 502.12 479.542 502.12C482.536 502.12 484.594 501.808 485.716 501.184C486.901 500.561 487.494 499.719 487.494 498.659C487.494 497.661 486.932 496.944 485.81 496.507C484.75 496.008 483.315 495.634 481.507 495.385C479.761 495.135 477.827 494.855 475.707 494.543C473.587 494.231 471.435 493.826 469.252 493.327C467.132 492.765 465.168 491.955 463.359 490.895C461.613 489.772 460.21 488.275 459.15 486.404C458.089 484.533 457.559 482.164 457.559 479.295C457.559 476.052 458.495 473.183 460.366 470.689C462.299 468.132 465.105 466.136 468.785 464.702C472.464 463.205 476.954 462.457 482.255 462.457C485.81 462.457 489.396 462.831 493.013 463.58C496.692 464.266 499.779 465.326 502.274 466.76L496.942 478.827C494.447 477.393 491.953 476.426 489.458 475.927C486.963 475.366 484.594 475.086 482.349 475.086C479.355 475.086 477.235 475.429 475.988 476.114C474.803 476.8 474.21 477.642 474.21 478.64C474.21 479.638 474.74 480.418 475.801 480.979C476.861 481.478 478.264 481.883 480.01 482.195C481.819 482.444 483.783 482.725 485.903 483.037C488.024 483.286 490.144 483.692 492.264 484.253C494.447 484.814 496.411 485.656 498.158 486.779C499.966 487.839 501.401 489.304 502.461 491.175C503.521 492.984 504.051 495.322 504.051 498.191C504.051 501.309 503.084 504.115 501.151 506.61C499.28 509.105 496.474 511.1 492.732 512.597C489.053 514.094 484.469 514.842 478.981 514.842ZM542.86 462.457C546.789 462.457 550.344 463.268 553.524 464.889C556.705 466.448 559.199 468.88 561.008 472.186C562.879 475.491 563.814 479.763 563.814 485.001V514H546.041V487.901C546.041 484.284 545.292 481.665 543.796 480.043C542.361 478.36 540.334 477.518 537.715 477.518C535.844 477.518 534.129 477.954 532.57 478.827C531.011 479.638 529.795 480.916 528.922 482.663C528.049 484.409 527.612 486.685 527.612 489.491V514H509.839V444.59H527.612V477.705L523.496 473.495C525.43 469.816 528.08 467.072 531.448 465.263C534.815 463.392 538.62 462.457 542.86 462.457Z" fill="url(#paint1_linear_0_1)"/>
<path d="M355.759 512.877L355.039 514.743L355.055 514.75L355.071 514.756L355.759 512.877ZM344.346 505.768L342.961 507.21L342.968 507.217L342.975 507.224L344.346 505.768ZM336.863 495.01L335.027 495.805L335.032 495.815L336.863 495.01ZM336.863 467.602L338.694 468.407L338.698 468.396L336.863 467.602ZM344.346 456.751L342.975 455.295L342.968 455.302L342.961 455.309L344.346 456.751ZM355.759 449.735L356.455 451.61L356.462 451.607L356.47 451.604L355.759 449.735ZM386.348 450.39L385.531 452.215L385.54 452.219L386.348 450.39ZM398.322 459.557L399.663 461.04L401.056 459.78L399.886 458.311L398.322 459.557ZM386.535 470.221L385.011 471.516L386.347 473.088L387.877 471.704L386.535 470.221ZM379.519 464.515L378.589 466.286L378.598 466.29L378.607 466.295L379.519 464.515ZM363.71 463.86L364.435 465.724V465.724L363.71 463.86ZM357.91 467.695L356.47 466.308L356.469 466.309L357.91 467.695ZM354.169 473.589L352.315 472.837L352.306 472.859L352.298 472.881L354.169 473.589ZM354.169 488.93L352.298 489.638L352.306 489.66L352.315 489.681L354.169 488.93ZM357.91 494.917L356.443 496.276L356.469 496.304L356.496 496.331L357.91 494.917ZM363.71 498.659L364.435 496.795V496.795L363.71 498.659ZM379.519 498.004L378.607 496.224L378.598 496.228L378.589 496.233L379.519 498.004ZM386.535 492.298L387.877 490.815L386.347 489.431L385.011 491.002L386.535 492.298ZM398.322 502.962L399.876 504.22L401.067 502.749L399.663 501.479L398.322 502.962ZM386.348 512.129L387.165 513.955L387.175 513.95L386.348 512.129ZM370.165 515.31V513.31C365.2 513.31 360.634 512.533 356.447 510.999L355.759 512.877L355.071 514.756C359.74 516.465 364.777 517.31 370.165 517.31V515.31ZM355.759 512.877L356.479 511.011C352.343 509.416 348.763 507.182 345.718 504.313L344.346 505.768L342.975 507.224C346.416 510.466 350.444 512.971 355.039 514.743L355.759 512.877ZM344.346 505.768L345.732 504.326C342.744 501.455 340.399 498.087 338.694 494.206L336.863 495.01L335.032 495.815C336.944 500.166 339.588 503.97 342.961 507.21L344.346 505.768ZM336.863 495.01L338.698 494.216C337.008 490.312 336.15 486.002 336.15 481.259H334.15H332.15C332.15 486.495 333.1 491.353 335.027 495.805L336.863 495.01ZM334.15 481.259H336.15C336.15 476.517 337.008 472.242 338.694 468.406L336.863 467.602L335.032 466.797C333.1 471.193 332.15 476.024 332.15 481.259H334.15ZM336.863 467.602L338.698 468.396C340.405 464.454 342.749 461.059 345.732 458.193L344.346 456.751L342.961 455.309C339.583 458.554 336.938 462.394 335.027 466.808L336.863 467.602ZM344.346 456.751L345.718 458.206C348.757 455.342 352.329 453.142 356.455 451.61L355.759 449.735L355.062 447.86C350.458 449.57 346.421 452.048 342.975 455.295L344.346 456.751ZM355.759 449.735L356.47 451.604C360.65 450.015 365.209 449.209 370.165 449.209V447.209V445.209C364.768 445.209 359.723 446.088 355.048 447.866L355.759 449.735ZM370.165 447.209V449.209C375.978 449.209 381.087 450.227 385.531 452.215L386.348 450.39L387.165 448.564C382.129 446.311 376.449 445.209 370.165 445.209V447.209ZM386.348 450.39L385.54 452.219C390.055 454.213 393.784 457.072 396.757 460.804L398.322 459.557L399.886 458.311C396.498 454.059 392.244 450.807 387.156 448.56L386.348 450.39ZM398.322 459.557L396.98 458.074L385.193 468.738L386.535 470.221L387.877 471.704L399.663 461.04L398.322 459.557ZM386.535 470.221L388.059 468.926C385.792 466.259 383.252 464.18 380.431 462.735L379.519 464.515L378.607 466.295C380.9 467.469 383.037 469.194 385.011 471.516L386.535 470.221ZM379.519 464.515L380.449 462.744C377.638 461.268 374.507 460.551 371.1 460.551V462.551V464.551C373.93 464.551 376.411 465.142 378.589 466.286L379.519 464.515ZM371.1 462.551V460.551C368.199 460.551 365.486 461.024 362.985 461.996L363.71 463.86L364.435 465.724C366.424 464.951 368.639 464.551 371.1 464.551V462.551ZM363.71 463.86L362.985 461.996C360.478 462.971 358.299 464.409 356.47 466.308L357.91 467.695L359.351 469.083C360.765 467.614 362.452 466.495 364.435 465.724L363.71 463.86ZM357.91 467.695L356.469 466.309C354.715 468.133 353.336 470.319 352.315 472.837L354.169 473.589L356.022 474.34C356.872 472.243 357.987 470.501 359.352 469.082L357.91 467.695ZM354.169 473.589L352.298 472.881C351.328 475.443 350.859 478.244 350.859 481.259H352.859H354.859C354.859 478.662 355.263 476.349 356.039 474.297L354.169 473.589ZM352.859 481.259H350.859C350.859 484.275 351.328 487.075 352.298 489.638L354.169 488.93L356.039 488.222C355.263 486.17 354.859 483.857 354.859 481.259H352.859ZM354.169 488.93L352.315 489.681C353.334 492.194 354.706 494.4 356.443 496.276L357.91 494.917L359.378 493.558C357.997 492.066 356.874 490.281 356.022 488.179L354.169 488.93ZM357.91 494.917L356.496 496.331C358.324 498.159 360.495 499.554 362.985 500.523L363.71 498.659L364.435 496.795C362.435 496.017 360.74 494.918 359.325 493.503L357.91 494.917ZM363.71 498.659L362.985 500.523C365.486 501.495 368.199 501.968 371.1 501.968V499.968V497.968C368.639 497.968 366.424 497.568 364.435 496.795L363.71 498.659ZM371.1 499.968V501.968C374.507 501.968 377.638 501.25 380.449 499.775L379.519 498.004L378.589 496.233C376.411 497.377 373.93 497.968 371.1 497.968V499.968ZM379.519 498.004L380.431 499.784C383.252 498.339 385.792 496.26 388.059 493.593L386.535 492.298L385.011 491.002C383.037 493.324 380.9 495.05 378.607 496.224L379.519 498.004ZM386.535 492.298L385.193 493.781L396.98 504.445L398.322 502.962L399.663 501.479L387.877 490.815L386.535 492.298ZM398.322 502.962L396.767 501.703C393.791 505.38 390.052 508.248 385.52 510.308L386.348 512.129L387.175 513.95C392.247 511.644 396.492 508.401 399.876 504.22L398.322 502.962ZM386.348 512.129L385.531 510.303C381.087 512.291 375.978 513.31 370.165 513.31V515.31V517.31C376.449 517.31 382.129 516.207 387.165 513.955L386.348 512.129ZM434.648 514H432.648V516H434.648V514ZM434.648 504.552H436.648V504.063L436.422 503.629L434.648 504.552ZM433.431 502.213H431.431V502.702L431.657 503.136L433.431 502.213ZM430.812 478.36L429.453 479.827L429.482 479.853L429.511 479.878L430.812 478.36ZM415.284 477.237L415.859 479.153L415.88 479.146L415.902 479.139L415.284 477.237ZM408.923 480.418L407.131 481.306L408.224 483.51L410.158 481.99L408.923 480.418ZM402.936 468.35L401.843 466.675L400.354 467.646L401.144 469.239L402.936 468.35ZM413.226 464.047L413.711 465.988L413.721 465.985L413.732 465.982L413.226 464.047ZM444.376 468.163L443.083 469.689L443.095 469.699L443.106 469.708L444.376 468.163ZM451.205 514V516H453.205V514H451.205ZM409.391 512.784L410.269 510.987L409.391 512.784ZM402.936 507.171L401.225 508.207L401.235 508.223L401.245 508.239L402.936 507.171ZM403.123 491.175L401.487 490.025L401.48 490.034L403.123 491.175ZM410.513 485.937L411.188 487.819L411.204 487.814L411.219 487.808L410.513 485.937ZM435.302 484.066H437.302V482.066H435.302V484.066ZM435.302 493.327V495.327H437.302V493.327H435.302ZM419.68 494.73L418.441 493.16L418.42 493.176L418.4 493.193L419.68 494.73ZM419.774 502.213L418.535 503.783V503.783L419.774 502.213ZM429.877 502.213L430.906 503.928L430.915 503.923L430.925 503.917L429.877 502.213ZM433.431 497.723L435.306 497.027L433.44 492.003L431.559 497.021L433.431 497.723ZM435.864 504.271L437.796 504.789L437.961 504.173L437.738 503.575L435.864 504.271ZM430.344 512.223L431.436 513.899L431.445 513.893L430.344 512.223ZM434.648 514H436.648V504.552H434.648H432.648V514H434.648ZM434.648 504.552L436.422 503.629L435.206 501.291L433.431 502.213L431.657 503.136L432.873 505.475L434.648 504.552ZM433.431 502.213H435.431V484.814H433.431H431.431V502.213H433.431ZM433.431 484.814H435.431C435.431 481.564 434.4 478.8 432.114 476.841L430.812 478.36L429.511 479.878C430.717 480.912 431.431 482.451 431.431 484.814H433.431ZM430.812 478.36L432.171 476.892C429.944 474.83 426.62 474.021 422.674 474.021V476.021V478.021C426.212 478.021 428.312 478.771 429.453 479.827L430.812 478.36ZM422.674 476.021V474.021C420.016 474.021 417.344 474.464 414.666 475.335L415.284 477.237L415.902 479.139C418.213 478.388 420.467 478.021 422.674 478.021V476.021ZM415.284 477.237L414.709 475.321C412.015 476.129 409.661 477.294 407.687 478.845L408.923 480.418L410.158 481.99C411.677 480.797 413.563 479.841 415.859 479.153L415.284 477.237ZM408.923 480.418L410.714 479.529L404.728 467.461L402.936 468.35L401.144 469.239L407.131 481.306L408.923 480.418ZM402.936 468.35L404.028 470.026C406.678 468.298 409.893 466.942 413.711 465.988L413.226 464.047L412.741 462.107C408.576 463.148 404.932 464.661 401.843 466.675L402.936 468.35ZM413.226 464.047L413.732 465.982C417.629 464.963 421.481 464.457 425.293 464.457V462.457V460.457C421.123 460.457 416.93 461.011 412.72 462.112L413.226 464.047ZM425.293 462.457V464.457C433.239 464.457 439.075 466.294 443.083 469.689L444.376 468.163L445.669 466.637C440.697 462.425 433.811 460.457 425.293 460.457V462.457ZM444.376 468.163L443.106 469.708C447.043 472.944 449.205 478.165 449.205 485.843H451.205H453.205C453.205 477.431 450.814 470.866 445.646 466.618L444.376 468.163ZM451.205 485.843H449.205V514H451.205H453.205V485.843H451.205ZM451.205 514V512H434.648V514V516H451.205V514ZM419.68 514.842V512.842C415.844 512.842 412.733 512.192 410.269 510.987L409.391 512.784L408.512 514.581C411.661 516.12 415.41 516.842 419.68 516.842V514.842ZM409.391 512.784L410.269 510.987C407.757 509.759 405.903 508.124 404.627 506.103L402.936 507.171L401.245 508.239C402.962 510.958 405.412 513.065 408.512 514.581L409.391 512.784ZM402.936 507.171L404.647 506.136C403.413 504.097 402.784 501.808 402.784 499.22H400.784H398.784C398.784 502.494 399.59 505.506 401.225 508.207L402.936 507.171ZM400.784 499.22H402.784C402.784 496.45 403.471 494.18 404.766 492.316L403.123 491.175L401.48 490.034C399.657 492.66 398.784 495.753 398.784 499.22H400.784ZM403.123 491.175L404.759 492.325C406.091 490.43 408.175 488.899 411.188 487.819L410.513 485.937L409.838 484.054C406.241 485.344 403.398 487.305 401.487 490.025L403.123 491.175ZM410.513 485.937L411.219 487.808C414.218 486.676 418.226 486.066 423.329 486.066V484.066V482.066C417.954 482.066 413.419 482.702 409.807 484.065L410.513 485.937ZM423.329 484.066V486.066H435.302V484.066V482.066H423.329V484.066ZM435.302 484.066H433.302V493.327H435.302H437.302V484.066H435.302ZM435.302 493.327V491.327H425.761V493.327V495.327H435.302V493.327ZM425.761 493.327V491.327C422.792 491.327 420.18 491.788 418.441 493.16L419.68 494.73L420.92 496.3C421.551 495.801 422.993 495.327 425.761 495.327V493.327ZM419.68 494.73L418.4 493.193C416.788 494.537 415.997 496.364 415.997 498.472H417.997H419.997C419.997 497.461 420.328 496.794 420.961 496.266L419.68 494.73ZM417.997 498.472H415.997C415.997 500.619 416.851 502.454 418.535 503.783L419.774 502.213L421.013 500.644C420.327 500.102 419.997 499.442 419.997 498.472H417.997ZM419.774 502.213L418.535 503.783C420.182 505.083 422.293 505.617 424.638 505.617V503.617V501.617C422.868 501.617 421.736 501.214 421.013 500.644L419.774 502.213ZM424.638 503.617V505.617C426.91 505.617 429.016 505.062 430.906 503.928L429.877 502.213L428.848 500.498C427.619 501.235 426.233 501.617 424.638 501.617V503.617ZM429.877 502.213L430.925 503.917C432.97 502.658 434.419 500.785 435.304 498.426L433.431 497.723L431.559 497.021C430.947 498.653 430.027 499.773 428.829 500.51L429.877 502.213ZM433.431 497.723L431.557 498.42L433.989 504.968L435.864 504.271L437.738 503.575L435.306 497.027L433.431 497.723ZM435.864 504.271L433.932 503.754C433.109 506.824 431.537 509.041 429.244 510.553L430.344 512.223L431.445 513.893C434.64 511.787 436.747 508.703 437.796 504.789L435.864 504.271ZM430.344 512.223L429.253 510.547C426.999 512.015 423.864 512.842 419.68 512.842V514.842V516.842C424.352 516.842 428.327 515.923 431.436 513.899L430.344 512.223ZM466.353 513.345L465.874 515.287L465.881 515.289L466.353 513.345ZM456.53 509.603L454.699 508.8L453.992 510.413L455.501 511.318L456.53 509.603ZM461.862 497.443L462.898 495.732L460.947 494.551L460.031 496.64L461.862 497.443ZM470.188 500.904L469.658 502.832L469.676 502.837L469.694 502.842L470.188 500.904ZM485.716 501.184L484.785 499.415L484.765 499.425L484.745 499.436L485.716 501.184ZM485.81 496.507L484.958 498.317L485.021 498.346L485.085 498.371L485.81 496.507ZM481.507 495.385L481.224 497.365L481.233 497.366L481.507 495.385ZM475.707 494.543L475.416 496.521V496.521L475.707 494.543ZM469.252 493.327L468.741 495.26L468.774 495.269L468.807 495.276L469.252 493.327ZM463.359 490.895L462.278 492.577L462.312 492.599L462.348 492.62L463.359 490.895ZM459.15 486.404L460.89 485.418V485.418L459.15 486.404ZM460.366 470.689L458.77 469.483L458.766 469.489L460.366 470.689ZM468.785 464.702L469.511 466.565L469.525 466.56L469.538 466.555L468.785 464.702ZM493.013 463.58L492.607 465.538L492.627 465.542L492.646 465.546L493.013 463.58ZM502.274 466.76L504.103 467.568L504.83 465.923L503.271 465.026L502.274 466.76ZM496.942 478.827L495.945 480.561L497.872 481.669L498.771 479.636L496.942 478.827ZM489.458 475.927L489.019 477.879L489.042 477.884L489.066 477.889L489.458 475.927ZM475.988 476.114L475.024 474.362L475.005 474.373L474.986 474.384L475.988 476.114ZM475.801 480.979L474.865 482.746L474.906 482.768L474.949 482.788L475.801 480.979ZM480.01 482.195L479.658 484.164L479.697 484.171L479.737 484.176L480.01 482.195ZM485.903 483.037L485.612 485.016L485.641 485.02L485.67 485.023L485.903 483.037ZM492.264 484.253L491.753 486.186L491.759 486.188L491.766 486.19L492.264 484.253ZM498.158 486.779L497.076 488.461L497.111 488.483L497.146 488.504L498.158 486.779ZM502.461 491.175L500.721 492.161L500.728 492.174L500.735 492.187L502.461 491.175ZM501.151 506.61L499.57 505.385L499.561 505.397L499.551 505.41L501.151 506.61ZM492.732 512.597L491.989 510.74L491.978 510.744L492.732 512.597ZM478.981 514.842V512.842C474.834 512.842 470.783 512.361 466.824 511.401L466.353 513.345L465.881 515.289C470.154 516.325 474.522 516.842 478.981 516.842V514.842ZM466.353 513.345L466.831 511.403C462.894 510.434 459.826 509.248 457.559 507.888L456.53 509.603L455.501 511.318C458.224 512.952 461.704 514.261 465.874 515.287L466.353 513.345ZM456.53 509.603L458.362 510.407L463.694 498.246L461.862 497.443L460.031 496.64L454.699 508.8L456.53 509.603ZM461.862 497.443L460.827 499.154C463.381 500.7 466.333 501.919 469.658 502.832L470.188 500.904L470.717 498.975C467.682 498.142 465.083 497.054 462.898 495.732L461.862 497.443ZM470.188 500.904L469.694 502.842C473.024 503.691 476.308 504.12 479.542 504.12V502.12V500.12C476.665 500.12 473.713 499.738 470.682 498.966L470.188 500.904ZM479.542 502.12V504.12C481.1 504.12 482.47 504.039 483.63 503.863C484.767 503.691 485.829 503.41 486.688 502.933L485.716 501.184L484.745 499.436C484.481 499.583 483.952 499.769 483.031 499.909C482.134 500.045 480.978 500.12 479.542 500.12V502.12ZM485.716 501.184L486.648 502.954C488.286 502.092 489.494 500.667 489.494 498.659H487.494H485.494C485.494 498.771 485.517 499.029 484.785 499.415L485.716 501.184ZM487.494 498.659H489.494C489.494 497.758 489.23 496.884 488.648 496.14C488.085 495.421 487.326 494.951 486.535 494.643L485.81 496.507L485.085 498.371C485.247 498.434 485.352 498.493 485.416 498.537C485.478 498.58 485.497 498.605 485.498 498.605C485.498 498.606 485.496 498.603 485.493 498.598C485.49 498.592 485.488 498.587 485.488 498.585C485.485 498.579 485.494 498.598 485.494 498.659H487.494ZM485.81 496.507L486.661 494.698C485.346 494.078 483.69 493.667 481.78 493.403L481.507 495.385L481.233 497.366C482.94 497.601 484.153 497.938 484.958 498.317L485.81 496.507ZM481.507 495.385L481.79 493.405C480.047 493.156 478.116 492.876 475.998 492.564L475.707 494.543L475.416 496.521C477.538 496.834 479.475 497.115 481.224 497.365L481.507 495.385ZM475.707 494.543L475.998 492.564C473.932 492.26 471.832 491.865 469.698 491.377L469.252 493.327L468.807 495.276C471.038 495.786 473.241 496.202 475.416 496.521L475.707 494.543ZM469.252 493.327L469.764 491.393C467.811 490.876 466.016 490.133 464.371 489.169L463.359 490.895L462.348 492.62C464.32 493.776 466.453 494.655 468.741 495.26L469.252 493.327ZM463.359 490.895L464.441 489.212C462.977 488.271 461.796 487.018 460.89 485.418L459.15 486.404L457.41 487.39C458.624 489.533 460.249 491.273 462.278 492.577L463.359 490.895ZM459.15 486.404L460.89 485.418C460.047 483.932 459.559 481.93 459.559 479.295H457.559H455.559C455.559 482.398 456.131 485.135 457.41 487.39L459.15 486.404ZM457.559 479.295H459.559C459.559 476.466 460.365 474.023 461.966 471.889L460.366 470.689L458.766 469.489C456.624 472.344 455.559 475.638 455.559 479.295H457.559ZM460.366 470.689L461.961 471.895C463.624 469.695 466.097 467.897 469.511 466.565L468.785 464.702L468.058 462.839C464.114 464.376 460.973 466.569 458.77 469.483L460.366 470.689ZM468.785 464.702L469.538 466.555C472.913 465.182 477.131 464.457 482.255 464.457V462.457V460.457C476.777 460.457 472.015 461.229 468.031 462.849L468.785 464.702ZM482.255 462.457V464.457C485.668 464.457 489.119 464.816 492.607 465.538L493.013 463.58L493.418 461.621C489.673 460.846 485.951 460.457 482.255 460.457V462.457ZM493.013 463.58L492.646 465.546C496.167 466.202 499.026 467.2 501.277 468.494L502.274 466.76L503.271 465.026C500.532 463.451 497.217 462.329 493.379 461.613L493.013 463.58ZM502.274 466.76L500.444 465.952L495.112 478.019L496.942 478.827L498.771 479.636L504.103 467.568L502.274 466.76ZM496.942 478.827L497.939 477.093C495.28 475.565 492.583 474.513 489.85 473.966L489.458 475.927L489.066 477.889C491.322 478.34 493.614 479.221 495.945 480.561L496.942 478.827ZM489.458 475.927L489.897 473.976C487.278 473.387 484.76 473.086 482.349 473.086V475.086V477.086C484.427 477.086 486.649 477.345 489.019 477.879L489.458 475.927ZM482.349 475.086V473.086C479.313 473.086 476.747 473.414 475.024 474.362L475.988 476.114L476.951 477.867C477.723 477.443 479.397 477.086 482.349 477.086V475.086ZM475.988 476.114L474.986 474.384C473.442 475.277 472.21 476.673 472.21 478.64H474.21H476.21C476.21 478.567 476.223 478.507 476.29 478.411C476.374 478.292 476.569 478.089 476.99 477.845L475.988 476.114ZM474.21 478.64H472.21C472.21 480.543 473.309 481.923 474.865 482.746L475.801 480.979L476.736 479.211C476.418 479.043 476.3 478.905 476.262 478.849C476.236 478.81 476.21 478.763 476.21 478.64H474.21ZM475.801 480.979L474.949 482.788C476.227 483.39 477.818 483.835 479.658 484.164L480.01 482.195L480.362 480.226C478.709 479.931 477.494 479.565 476.652 479.169L475.801 480.979ZM480.01 482.195L479.737 484.176C481.538 484.425 483.497 484.704 485.612 485.016L485.903 483.037L486.194 481.058C484.069 480.746 482.099 480.464 480.283 480.214L480.01 482.195ZM485.903 483.037L485.67 485.023C487.694 485.261 489.721 485.649 491.753 486.186L492.264 484.253L492.776 482.319C490.567 481.735 488.354 481.311 486.137 481.05L485.903 483.037ZM492.264 484.253L491.766 486.19C493.76 486.702 495.524 487.463 497.076 488.461L498.158 486.779L499.239 485.096C497.299 483.849 495.134 482.926 492.762 482.316L492.264 484.253ZM498.158 486.779L497.146 488.504C498.643 489.381 499.829 490.588 500.721 492.161L502.461 491.175L504.201 490.189C502.972 488.02 501.289 486.296 499.169 485.053L498.158 486.779ZM502.461 491.175L500.735 492.187C501.561 493.596 502.051 495.552 502.051 498.191H504.051H506.051C506.051 495.092 505.48 492.372 504.186 490.164L502.461 491.175ZM504.051 498.191H502.051C502.051 500.86 501.235 503.236 499.57 505.385L501.151 506.61L502.732 507.835C504.933 504.995 506.051 501.758 506.051 498.191H504.051ZM501.151 506.61L499.551 505.41C497.956 507.537 495.488 509.34 491.989 510.74L492.732 512.597L493.475 514.454C497.459 512.86 500.604 510.672 502.751 507.81L501.151 506.61ZM492.732 512.597L491.978 510.744C488.611 512.114 484.303 512.842 478.981 512.842V514.842V516.842C484.635 516.842 489.494 516.073 493.486 514.449L492.732 512.597ZM553.524 464.889L552.616 466.671L552.63 466.678L552.644 466.685L553.524 464.889ZM561.008 472.186L559.253 473.146L559.26 473.158L559.267 473.171L561.008 472.186ZM563.814 514V516H565.814V514H563.814ZM546.041 514H544.041V516H546.041V514ZM543.796 480.043L542.273 481.34L542.299 481.371L542.326 481.4L543.796 480.043ZM532.57 478.827L533.493 480.602L533.52 480.587L533.548 480.572L532.57 478.827ZM528.922 482.663L530.711 483.557L528.922 482.663ZM527.612 514V516H529.612V514H527.612ZM509.839 514H507.839V516H509.839V514ZM509.839 444.59V442.59H507.839V444.59H509.839ZM527.612 444.59H529.612V442.59H527.612V444.59ZM527.612 477.705L526.182 479.103L529.612 482.611V477.705H527.612ZM523.496 473.495L521.726 472.565L521.049 473.853L522.066 474.893L523.496 473.495ZM531.448 465.263L532.394 467.025L532.407 467.019L532.419 467.012L531.448 465.263ZM542.86 462.457V464.457C546.506 464.457 549.744 465.207 552.616 466.671L553.524 464.889L554.433 463.107C550.943 461.329 547.073 460.457 542.86 460.457V462.457ZM553.524 464.889L552.644 466.685C555.43 468.05 557.63 470.178 559.253 473.146L561.008 472.186L562.762 471.226C560.769 467.583 557.98 464.846 554.405 463.093L553.524 464.889ZM561.008 472.186L559.267 473.171C560.916 476.083 561.814 479.983 561.814 485.001H563.814H565.814C565.814 479.542 564.842 474.899 562.748 471.2L561.008 472.186ZM563.814 485.001H561.814V514H563.814H565.814V485.001H563.814ZM563.814 514V512H546.041V514V516H563.814V514ZM546.041 514H548.041V487.901H546.041H544.041V514H546.041ZM546.041 487.901H548.041C548.041 484.084 547.264 480.852 545.265 478.687L543.796 480.043L542.326 481.4C543.321 482.478 544.041 484.484 544.041 487.901H546.041ZM543.796 480.043L545.318 478.746C543.433 476.533 540.801 475.518 537.715 475.518V477.518V479.518C539.868 479.518 541.29 480.186 542.273 481.34L543.796 480.043ZM537.715 477.518V475.518C535.519 475.518 533.465 476.034 531.593 477.082L532.57 478.827L533.548 480.572C534.794 479.874 536.17 479.518 537.715 479.518V477.518ZM532.57 478.827L531.648 477.053C529.673 478.08 528.173 479.689 527.133 481.768L528.922 482.663L530.711 483.557C531.417 482.144 532.35 481.196 533.493 480.602L532.57 478.827ZM528.922 482.663L527.133 481.768C526.074 483.886 525.612 486.501 525.612 489.491H527.612H529.612C529.612 486.869 530.024 484.931 530.711 483.557L528.922 482.663ZM527.612 489.491H525.612V514H527.612H529.612V489.491H527.612ZM527.612 514V512H509.839V514V516H527.612V514ZM509.839 514H511.839V444.59H509.839H507.839V514H509.839ZM509.839 444.59V446.59H527.612V444.59V442.59H509.839V444.59ZM527.612 444.59H525.612V477.705H527.612H529.612V444.59H527.612ZM527.612 477.705L529.042 476.307L524.926 472.097L523.496 473.495L522.066 474.893L526.182 479.103L527.612 477.705ZM523.496 473.495L525.267 474.426C527.032 471.067 529.409 468.628 532.394 467.025L531.448 465.263L530.502 463.501C526.752 465.515 523.828 468.565 521.726 472.565L523.496 473.495ZM531.448 465.263L532.419 467.012C535.46 465.322 538.924 464.457 542.86 464.457V462.457V460.457C538.315 460.457 534.17 461.463 530.476 463.515L531.448 465.263Z" fill="#047935" mask="url(#path-10-outside-2_0_1)"/>
</g>
</g>
</g>
</g>
<g id="Rectangle">
<rect x="40" y="4" width="33.75" height="30" rx="3" fill="#444444"/>
<rect x="40.5" y="4.5" width="32.75" height="29" rx="2.5" stroke="white" stroke-opacity="0.0980392"/>
</g>
<path id="icon_3" d="M46.8438 22V16H47.7656V22H46.8438ZM47.3125 15C47.1328 15 46.9779 14.9388 46.8477 14.8164C46.7201 14.694 46.6563 14.5469 46.6563 14.375C46.6563 14.2031 46.7201 14.056 46.8477 13.9336C46.9779 13.8112 47.1328 13.75 47.3125 13.75C47.4922 13.75 47.6458 13.8112 47.7734 13.9336C47.9036 14.056 47.9688 14.2031 47.9688 14.375C47.9688 14.5469 47.9036 14.694 47.7734 14.8164C47.6458 14.9388 47.4922 15 47.3125 15ZM51.8916 22.125C51.3291 22.125 50.8447 21.9922 50.4385 21.7266C50.0322 21.4609 49.7197 21.0951 49.501 20.6289C49.2822 20.1628 49.1729 19.6302 49.1729 19.0312C49.1729 18.4219 49.2848 17.8841 49.5088 17.418C49.7354 16.9492 50.0505 16.5833 50.4541 16.3203C50.8604 16.0547 51.3343 15.9219 51.876 15.9219C52.2979 15.9219 52.6781 16 53.0166 16.1562C53.3551 16.3125 53.6325 16.5312 53.8486 16.8125C54.0648 17.0937 54.1989 17.4219 54.251 17.7969H53.3291C53.2588 17.5234 53.1025 17.2812 52.8604 17.0703C52.6208 16.8568 52.2979 16.75 51.8916 16.75C51.5322 16.75 51.2171 16.8437 50.9463 17.0312C50.6781 17.2161 50.4684 17.4779 50.3174 17.8164C50.1689 18.1523 50.0947 18.5469 50.0947 19C50.0947 19.4635 50.1676 19.8672 50.3135 20.2109C50.4619 20.5547 50.6702 20.8216 50.9385 21.0117C51.2093 21.2018 51.527 21.2969 51.8916 21.2969C52.1312 21.2969 52.3486 21.2552 52.5439 21.1719C52.7393 21.0885 52.9046 20.9688 53.04 20.8125C53.1755 20.6562 53.2718 20.4687 53.3291 20.25H54.251C54.1989 20.6042 54.07 20.9232 53.8643 21.207C53.6611 21.4883 53.3916 21.7122 53.0557 21.8789C52.7223 22.043 52.3343 22.125 51.8916 22.125ZM58.0361 22.125C57.4945 22.125 57.0192 21.9961 56.6104 21.7383C56.2041 21.4805 55.8864 21.1198 55.6572 20.6562C55.4307 20.1927 55.3174 19.651 55.3174 19.0312C55.3174 18.4062 55.4307 17.8607 55.6572 17.3945C55.8864 16.9284 56.2041 16.5664 56.6104 16.3086C57.0192 16.0508 57.4945 15.9219 58.0361 15.9219C58.5778 15.9219 59.0518 16.0508 59.458 16.3086C59.8669 16.5664 60.1846 16.9284 60.4111 17.3945C60.6403 17.8607 60.7549 18.4062 60.7549 19.0312C60.7549 19.651 60.6403 20.1927 60.4111 20.6562C60.1846 21.1198 59.8669 21.4805 59.458 21.7383C59.0518 21.9961 58.5778 22.125 58.0361 22.125ZM58.0361 21.2969C58.4476 21.2969 58.7861 21.1914 59.0518 20.9805C59.3174 20.7695 59.514 20.4922 59.6416 20.1484C59.7692 19.8047 59.833 19.4323 59.833 19.0312C59.833 18.6302 59.7692 18.2565 59.6416 17.9102C59.514 17.5638 59.3174 17.2839 59.0518 17.0703C58.7861 16.8568 58.4476 16.75 58.0361 16.75C57.6247 16.75 57.2861 16.8568 57.0205 17.0703C56.7549 17.2839 56.5583 17.5638 56.4307 17.9102C56.3031 18.2565 56.2393 18.6302 56.2393 19.0312C56.2393 19.4323 56.3031 19.8047 56.4307 20.1484C56.5583 20.4922 56.7549 20.7695 57.0205 20.9805C57.2861 21.1914 57.6247 21.2969 58.0361 21.2969ZM63.084 18.3906V22H62.1621V16H63.0527V16.9375H63.1309C63.2715 16.6328 63.485 16.388 63.7715 16.2031C64.0579 16.0156 64.4277 15.9219 64.8809 15.9219C65.2871 15.9219 65.6426 16.0052 65.9473 16.1719C66.252 16.3359 66.4889 16.5859 66.6582 16.9219C66.8275 17.2552 66.9121 17.6771 66.9121 18.1875V22H65.9902V18.25C65.9902 17.7786 65.8678 17.4115 65.623 17.1484C65.3783 16.8828 65.0423 16.75 64.6152 16.75C64.321 16.75 64.0579 16.8138 63.8262 16.9414C63.597 17.069 63.416 17.2552 63.2832 17.5C63.1504 17.7448 63.084 18.0417 63.084 18.3906Z" fill="white"/>
<defs>
<filter id="filter0_d_0_1" x="93.9753" y="442.59" width="243.86" height="86.7245" filterUnits="userSpaceOnUse" color-interpolation-filters="sRGB">
<feFlood flood-opacity="0" result="BackgroundImageFix"/>
<feColorMatrix in="SourceAlpha" type="matrix" values="0 0 0 0 0 0 0 0 0 0 0 0 0 0 0 0 0 0 127 0" result="hardAlpha"/>
<feOffset dy="6.2363"/>
<feGaussianBlur stdDeviation="3.11815"/>
<feComposite in2="hardAlpha" operator="out"/>
<feColorMatrix type="matrix" values="0 0 0 0 0 0 0 0 0 0 0 0 0 0 0 0 0 0 0.49 0"/>
<feBlend mode="normal" in2="BackgroundImageFix" result="effect1_dropShadow_0_1"/>
<feBlend mode="normal" in="SourceGraphic" in2="effect1_dropShadow_0_1" result="shape"/>
</filter>
<filter id="filter1_d_0_1" x="325.914" y="442.59" width="246.137" height="87.1923" filterUnits="userSpaceOnUse" color-interpolation-filters="sRGB">
<feFlood flood-opacity="0" result="BackgroundImageFix"/>
<feColorMatrix in="SourceAlpha" type="matrix" values="0 0 0 0 0 0 0 0 0 0 0 0 0 0 0 0 0 0 127 0" result="hardAlpha"/>
<feOffset dy="6.2363"/>
<feGaussianBlur stdDeviation="3.11815"/>
<feComposite in2="hardAlpha" operator="out"/>
<feColorMatrix type="matrix" values="0 0 0 0 0 0 0 0 0 0 0 0 0 0 0 0 0 0 0.49 0"/>
<feBlend mode="normal" in2="BackgroundImageFix" result="effect1_dropShadow_0_1"/>
<feBlend mode="normal" in="SourceGraphic" in2="effect1_dropShadow_0_1" result="shape"/>
</filter>
<linearGradient id="paint0_linear_0_1" x1="-3.8147e-06" y1="1223.11" x2="686.394" y2="1159.11" gradientUnits="userSpaceOnUse">
<stop offset="0.434477" stop-color="#35DE66"/>
<stop offset="0.581125" stop-color="#2CE1A1"/>
<stop offset="1" stop-color="#02BBC7"/>
</linearGradient>
<linearGradient id="paint1_linear_0_1" x1="450.966" y1="524.693" x2="450.966" y2="454.458" gradientUnits="userSpaceOnUse">
<stop offset="0.0244704" stop-color="#21DE58"/>
<stop offset="0.561179" stop-color="#EBFF68"/>
</linearGradient>
<clipPath id="clip0_0_1">
<rect width="512" height="512" fill="white" transform="translate(80 132)"/>
</clipPath>
</defs>
</svg>
